# xmcd CD database file
#
# Track frame offsets:
#	182
#	29650
#	62775
#	105567
#	124257
#	172385
#	208145
#
# Disc length: 3292 seconds
#
# Revision: 1
# Processed by: cddbd v1.5.1PL0 Copyright (c) Steve Scherf et al.
# Submitted via: CDex 1.51
#
DISCID=6d0cda07
DTITLE=Eddie Harris - Listen Here - cd2
DYEAR=1982
DGENRE=Jazz
TTITLE0=Theme from 'Exodus'
TTITLE1=Sonnymoon For Two
TTITLE2=Lover Man (Oh, Where Can You Be)
TTITLE3=Cherokee
TTITLE4=Ballad (For My Love)
TTITLE5=Three Quarter Miles
TTITLE6=Now's The Time - Straight, No Chaser
EXTD=YEAR: 1982
EXTT0=
EXTT1=
EXTT2=
EXTT3=
EXTT4=
EXTT5=
EXTT6=
PLAYORDER=
